<?xml version="1.0" encoding="UTF-8"?>
<svg xmlns="http://www.w3.org/2000/svg" xmlns:xlink="http://www.w3.org/1999/xlink" width="48px" height="48px" viewBox="0 0 48 48" version="1.1">
<g id="surface1">
<path style=" stroke:none;fill-rule:nonzero;fill:rgb(100%,34.117648%,0%);fill-opacity:1;" d="M 42.648438 18.617188 C 41.132812 18.617188 39.800781 19.253906 38.816406 20.246094 C 35.207031 17.710938 30.339844 16.078125 24.945312 15.90625 L 27.746094 3.09375 L 36.671875 5.125 C 36.671875 7.34375 38.449219 9.152344 40.632812 9.152344 C 42.859375 9.152344 44.648438 7.292969 44.648438 5.074219 C 44.648438 2.859375 42.871094 1 40.636719 1 C 39.078125 1 37.734375 1.953125 37.0625 3.257812 L 27.210938 1.042969 C 26.714844 0.90625 26.226562 1.269531 26.097656 1.773438 L 23.019531 15.894531 C 17.667969 16.121094 12.851562 17.753906 9.230469 20.289062 C 8.246094 19.253906 6.863281 18.617188 5.347656 18.617188 C -0.277344 18.617188 -2.121094 26.273438 3.03125 28.890625 C 2.847656 29.703125 2.765625 30.566406 2.765625 31.429688 C 2.765625 40.03125 12.316406 47 24.042969 47 C 35.816406 47 45.367188 40.03125 45.367188 31.429688 C 45.367188 30.566406 45.277344 29.660156 45.054688 28.851562 C 50.101562 26.222656 48.242188 18.621094 42.648438 18.617188 Z M 11.203125 29.4375 C 11.203125 27.179688 12.980469 25.359375 15.21875 25.359375 C 17.402344 25.359375 19.183594 27.164062 19.183594 29.4375 C 19.183594 31.652344 17.402344 33.460938 15.21875 33.460938 C 12.992188 33.472656 11.203125 31.652344 11.203125 29.4375 Z M 32.878906 39.03125 C 29.199219 42.769531 18.808594 42.769531 15.125 39.03125 C 14.71875 38.671875 14.71875 38.035156 15.125 37.625 C 15.476562 37.265625 16.105469 37.265625 16.460938 37.625 C 19.273438 40.550781 28.601562 40.601562 31.535156 37.625 C 31.886719 37.265625 32.515625 37.265625 32.871094 37.625 C 33.285156 38.039062 33.285156 38.675781 32.878906 39.03125 Z M 32.796875 33.46875 C 30.613281 33.46875 28.835938 31.664062 28.835938 29.449219 C 28.835938 27.191406 30.613281 25.371094 32.796875 25.371094 C 35.023438 25.371094 36.8125 27.179688 36.8125 29.449219 C 36.804688 31.652344 35.023438 33.46875 32.796875 33.46875 Z M 32.796875 33.46875 "/>
</g>
</svg>
