<?xml version="1.0" encoding="UTF-8"?>
<svg xmlns="http://www.w3.org/2000/svg" xmlns:xlink="http://www.w3.org/1999/xlink" width="48px" height="48px" viewBox="0 0 48 48" version="1.1">
<g id="surface1">
<path style=" stroke:none;fill-rule:nonzero;fill:rgb(11.764706%,56.470591%,100%);fill-opacity:1;" d="M 47.097656 16.625 L 24.597656 6.871094 C 24.214844 6.707031 23.785156 6.707031 23.402344 6.871094 L 0.902344 16.625 C -0.300781 17.144531 -0.300781 18.855469 0.902344 19.375 L 9 22.882812 L 9 32.25 C 9 37.296875 15.589844 41.25 24 41.25 C 32.410156 41.25 39 37.296875 39 32.25 L 39 22.882812 L 40.5 22.234375 L 40.5 38.25 C 40.5 39.078125 41.171875 39.75 42 39.75 C 42.828125 39.75 43.5 39.078125 43.5 38.25 L 43.5 20.933594 L 47.097656 19.375 C 48.300781 18.855469 48.300781 17.144531 47.097656 16.625 Z M 24 9.882812 L 42.730469 18 L 41.242188 18.644531 L 24.1875 16.511719 C 23.363281 16.410156 22.613281 16.992188 22.511719 17.8125 C 22.410156 18.636719 22.992188 19.386719 23.8125 19.488281 L 35.828125 20.988281 L 24 26.117188 C 13.417969 21.53125 15.671875 22.507812 5.269531 18 Z M 36 32.25 C 36 33.664062 34.839844 35.121094 32.816406 36.242188 C 28 38.917969 20.011719 38.925781 15.183594 36.242188 C 13.160156 35.121094 12 33.664062 12 32.25 L 12 24.183594 L 23.402344 29.125 C 23.785156 29.292969 24.214844 29.292969 24.597656 29.125 L 36 24.183594 Z M 36 32.25 "/>
</g>
</svg>
