<?xml version="1.0" encoding="UTF-8"?>
<svg xmlns="http://www.w3.org/2000/svg" xmlns:xlink="http://www.w3.org/1999/xlink" width="48px" height="48px" viewBox="0 0 48 48" version="1.1">
<g id="surface1">
<path style=" stroke:none;fill-rule:nonzero;fill:rgb(100%,26.274511%,0.392157%);fill-opacity:1;" d="M 29.027344 32.1875 C 27.949219 33.265625 25.648438 33.648438 24.003906 33.648438 C 22.359375 33.648438 20.058594 33.265625 18.984375 32.1875 C 18.730469 31.933594 18.320312 31.933594 18.066406 32.1875 C 17.8125 32.445312 17.8125 32.851562 18.066406 33.105469 C 19.769531 34.808594 23.046875 34.945312 24.003906 34.945312 C 24.964844 34.945312 28.234375 34.808594 29.941406 33.105469 C 30.191406 32.851562 30.191406 32.441406 29.941406 32.1875 C 29.6875 31.933594 29.28125 31.933594 29.027344 32.1875 Z M 29.027344 32.1875 "/>
<path style=" stroke:none;fill-rule:nonzero;fill:rgb(100%,26.274511%,0.392157%);fill-opacity:1;" d="M 21 26.5 C 21 25.125 19.875 24 18.5 24 C 17.121094 24 16 25.125 16 26.5 C 16 27.878906 17.121094 29 18.5 29 C 19.875 29 21 27.878906 21 26.5 Z M 21 26.5 "/>
<path style=" stroke:none;fill-rule:nonzero;fill:rgb(100%,26.274511%,0.392157%);fill-opacity:1;" d="M 24 0 C 10.746094 0 0 10.746094 0 24 C 0 37.253906 10.746094 48 24 48 C 37.253906 48 48 37.253906 48 24 C 48 10.746094 37.253906 0 24 0 Z M 37.925781 27.203125 C 37.976562 27.546875 38.007812 27.898438 38.007812 28.253906 C 38.007812 33.636719 31.738281 38 24.003906 38 C 16.273438 38 10.003906 33.636719 10.003906 28.253906 C 10.003906 27.894531 10.03125 27.539062 10.085938 27.191406 C 8.867188 26.644531 8.015625 25.421875 8.015625 24 C 8.015625 22.070312 9.582031 20.5 11.515625 20.5 C 12.457031 20.5 13.304688 20.871094 13.933594 21.476562 C 16.363281 19.722656 19.722656 18.605469 23.460938 18.507812 C 23.460938 18.460938 25.210938 10.136719 25.210938 10.136719 C 25.242188 9.972656 25.339844 9.835938 25.476562 9.742188 C 25.617188 9.652344 25.785156 9.625 25.949219 9.65625 L 31.765625 10.894531 C 32.175781 10.070312 33.015625 9.5 34 9.5 C 35.378906 9.5 36.5 10.617188 36.5 12 C 36.5 13.382812 35.378906 14.5 34 14.5 C 32.660156 14.5 31.574219 13.445312 31.511719 12.121094 L 26.304688 11.011719 L 24.710938 18.515625 C 28.382812 18.644531 31.679688 19.757812 34.070312 21.484375 C 34.699219 20.875 35.554688 20.5 36.5 20.5 C 38.433594 20.5 40 22.066406 40 24 C 40 25.429688 39.140625 26.652344 37.925781 27.203125 Z M 37.925781 27.203125 "/>
<path style=" stroke:none;fill-rule:nonzero;fill:rgb(100%,26.274511%,0.392157%);fill-opacity:1;" d="M 29.5 24 C 28.125 24 27 25.125 27 26.5 C 27 27.878906 28.125 29 29.5 29 C 30.878906 29 32 27.878906 32 26.5 C 32 25.125 30.878906 24 29.5 24 Z M 29.5 24 "/>
</g>
</svg>
